<svg width="15" height="14" viewBox="0 0 15 14" fill="none" xmlns="http://www.w3.org/2000/svg">
<rect x="0.806641" y="0.208008" width="13.6111" height="13.6111" rx="5.10417" fill="#1F8DED"/>
<path fill-rule="evenodd" clip-rule="evenodd" d="M7.24098 3.30139C7.24098 3.09639 7.40719 2.93018 7.6122 2.93018C7.8172 2.93018 7.98341 3.09639 7.98341 3.30139V8.68396C7.98341 8.88897 7.8172 9.05518 7.6122 9.05518C7.40719 9.05518 7.24098 8.88897 7.24098 8.68396V3.30139ZM5.75715 3.11799C5.55215 3.11799 5.38594 3.2842 5.38594 3.48921V8.44841C5.38594 8.65342 5.55215 8.81963 5.75715 8.81963C5.96215 8.81963 6.12836 8.65342 6.12836 8.44841V3.48921C6.12836 3.2842 5.96215 3.11799 5.75715 3.11799ZM11.3255 7.9416C11.5305 7.9416 11.6967 7.77539 11.6967 7.57038V4.2317C11.6967 4.0267 11.5305 3.86049 11.3255 3.86049C11.1205 3.86049 10.9543 4.0267 10.9543 4.2317V7.57038C10.9543 7.77539 11.1205 7.9416 11.3255 7.9416ZM7.61264 11.0968C10.1339 11.0968 11.5091 9.94286 11.5664 9.89377C11.7221 9.76031 11.7401 9.52599 11.6066 9.37026C11.4732 9.21454 11.2385 9.19663 11.0831 9.33008C11.0712 9.34029 9.86219 10.3543 7.61264 10.3543C5.39094 10.3543 4.16306 9.34753 4.14125 9.32934C3.98553 9.19654 3.75176 9.21491 3.61868 9.37026C3.48523 9.52599 3.50332 9.76031 3.65886 9.89377C3.71621 9.94286 5.09137 11.0968 7.61264 11.0968ZM3.5293 4.2317C3.5293 4.0267 3.69551 3.86049 3.90051 3.86049C4.10551 3.86049 4.27172 4.0267 4.27172 4.2317V7.57038C4.27172 7.77539 4.10551 7.9416 3.90051 7.9416C3.69551 7.9416 3.5293 7.77539 3.5293 7.57038V4.2317ZM9.46884 3.11799C9.26383 3.11799 9.09762 3.2842 9.09762 3.48921V8.44841C9.09762 8.65342 9.26383 8.81963 9.46884 8.81963C9.67384 8.81963 9.84005 8.65342 9.84005 8.44841V3.48921C9.84005 3.2842 9.67384 3.11799 9.46884 3.11799Z" fill="white"/>
</svg>
