<svg width="6" height="5" viewBox="0 0 6 5" fill="none" xmlns="http://www.w3.org/2000/svg">
<path d="M2.3457 2.61557C2.51819 2.84616 2.78232 2.99047 3.06955 3.01104C3.35677 3.03161 3.63877 2.92642 3.84236 2.72276L4.43784 2.12728C4.81397 1.73785 4.80859 1.11883 4.42575 0.736002C4.04292 0.353171 3.42391 0.347792 3.03448 0.723913L2.69307 1.06334" stroke="#422F8A" stroke-opacity="0.87" stroke-width="0.396991" stroke-linecap="round" stroke-linejoin="round"/>
<path d="M3.14027 2.21881C2.96779 1.98822 2.70366 1.84391 2.41643 1.82334C2.1292 1.80277 1.8472 1.90796 1.64362 2.11162L1.04813 2.70711C0.67201 3.09653 0.677389 3.71555 1.06022 4.09838C1.44305 4.48121 2.06207 4.48659 2.45149 4.11047L2.79092 3.77104" stroke="#422F8A" stroke-opacity="0.87" stroke-width="0.396991" stroke-linecap="round" stroke-linejoin="round"/>
</svg>
