<svg width="11" height="12" viewBox="0 0 11 12" fill="none" xmlns="http://www.w3.org/2000/svg">
<rect x="0.328342" y="1.07297" width="9.86806" height="9.86806" rx="1.19097" fill="white"/>
<path fill-rule="evenodd" clip-rule="evenodd" d="M5.26223 6.40384C5.48148 6.40384 5.65922 6.22611 5.65922 6.00685C5.65922 5.7876 5.48148 5.60986 5.26223 5.60986C5.04297 5.60986 4.86523 5.7876 4.86523 6.00685C4.86523 6.22611 5.04297 6.40384 5.26223 6.40384Z" stroke="#422F8A" stroke-opacity="0.87" stroke-width="0.396991" stroke-linecap="round" stroke-linejoin="round"/>
<path fill-rule="evenodd" clip-rule="evenodd" d="M6.85012 6.40384C7.06937 6.40384 7.24711 6.22611 7.24711 6.00685C7.24711 5.7876 7.06937 5.60986 6.85012 5.60986C6.63086 5.60986 6.45312 5.7876 6.45312 6.00685C6.45312 6.22611 6.63086 6.40384 6.85012 6.40384Z" stroke="#422F8A" stroke-opacity="0.87" stroke-width="0.396991" stroke-linecap="round" stroke-linejoin="round"/>
<path fill-rule="evenodd" clip-rule="evenodd" d="M3.67433 6.40384C3.89359 6.40384 4.07133 6.22611 4.07133 6.00685C4.07133 5.7876 3.89359 5.60986 3.67433 5.60986C3.45508 5.60986 3.27734 5.7876 3.27734 6.00685C3.27734 6.22611 3.45508 6.40384 3.67433 6.40384Z" stroke="#422F8A" stroke-opacity="0.87" stroke-width="0.396991" stroke-linecap="round" stroke-linejoin="round"/>
<rect x="0.328342" y="1.07297" width="9.86806" height="9.86806" rx="1.19097" stroke="#ECE9F1" stroke-width="0.340278"/>
</svg>
