<svg width="18" height="17" viewBox="0 0 18 17" fill="none" xmlns="http://www.w3.org/2000/svg">
<rect x="0.763672" y="0.634277" width="16.3333" height="16.3333" rx="6.80556" fill="#FA4778"/>
<path d="M0.763672 8.80094C0.763672 4.29062 4.42001 0.634277 8.93034 0.634277C13.4407 0.634277 17.097 4.29062 17.097 8.80094C17.097 13.3113 13.4407 16.9676 8.93034 16.9676C4.42001 16.9676 0.763672 13.3113 0.763672 8.80094Z" fill="#FA4778"/>
<path fill-rule="evenodd" clip-rule="evenodd" d="M6.7671 4.44531H11.4274C12.1094 4.44531 12.2949 4.83852 12.1513 5.57652C11.9598 6.53231 11.3437 9.55695 11.2898 9.76867C11.224 10.0227 11.1103 10.4401 10.5121 10.4401H9.11221C9.08828 10.4401 9.07034 10.4401 9.03444 10.4825L6.78505 13.1321C6.59361 13.3257 6.32441 13.2954 6.2227 13.2531C6.121 13.2107 5.93555 13.1018 5.93555 12.7328V5.24382C5.93555 4.93531 6.12698 4.44531 6.7671 4.44531ZM10.9427 6.74406L11.1521 5.72173C11.188 5.55236 11.0564 5.41927 10.9248 5.41927H7.1499C7.0123 5.41927 6.89864 5.53421 6.89864 5.67334V11.5956C6.89864 11.6137 6.9106 11.6198 6.92256 11.6016C6.92256 11.6016 8.29852 9.85945 8.45407 9.66587C8.60961 9.47229 8.66344 9.46625 8.92668 9.4602H10.183C10.3266 9.4602 10.4223 9.34526 10.4342 9.25452C10.4522 9.16983 10.6137 8.37133 10.6436 8.21404C10.6735 8.06281 10.5539 7.92368 10.4103 7.92368H8.87283C8.66943 7.92368 8.50192 7.7543 8.50192 7.54862V7.3248C8.50192 7.11912 8.66943 6.94974 8.87283 6.94974H10.6915C10.8171 6.94974 10.9188 6.85295 10.9427 6.74406Z" fill="white"/>
</svg>
