<svg width="15" height="15" viewBox="0 0 15 15" fill="none" xmlns="http://www.w3.org/2000/svg">
<g id="Iconly/Light/Filter">
<g id="Filter">
<path id="Stroke 1" d="M6.68453 9.79874H3.07617" stroke="#92959E" stroke-width="0.859035" stroke-linecap="round" stroke-linejoin="round"/>
<path id="Stroke 3" d="M8.29297 4.24747H11.9013" stroke="#92959E" stroke-width="0.859035" stroke-linecap="round" stroke-linejoin="round"/>
<path id="Stroke 5" fill-rule="evenodd" clip-rule="evenodd" d="M5.76529 4.21672C5.76529 3.47471 5.15929 2.87305 4.41194 2.87305C3.66459 2.87305 3.05859 3.47471 3.05859 4.21672C3.05859 4.95873 3.66459 5.5604 4.41194 5.5604C5.15929 5.5604 5.76529 4.95873 5.76529 4.21672Z" stroke="#92959E" stroke-width="0.859035" stroke-linecap="round" stroke-linejoin="round"/>
<path id="Stroke 7" fill-rule="evenodd" clip-rule="evenodd" d="M12.2223 9.77629C12.2223 9.03428 11.6168 8.43262 10.8694 8.43262C10.1216 8.43262 9.51562 9.03428 9.51562 9.77629C9.51562 10.5183 10.1216 11.12 10.8694 11.12C11.6168 11.12 12.2223 10.5183 12.2223 9.77629Z" stroke="#92959E" stroke-width="0.859035" stroke-linecap="round" stroke-linejoin="round"/>
</g>
</g>
</svg>
