<svg width="15" height="15" viewBox="0 0 15 15" fill="none" xmlns="http://www.w3.org/2000/svg">
<rect x="0.806641" y="0.749512" width="13.6111" height="13.6111" rx="5.10417" fill="#F7931A"/>
<path fill-rule="evenodd" clip-rule="evenodd" d="M11.2 6.54432C11.3601 5.47436 10.5454 4.89918 9.43147 4.51547L9.79281 3.06607L8.91056 2.8462L8.55876 4.2574C8.32683 4.19961 8.08862 4.14508 7.85191 4.09105L8.20622 2.67056L7.32447 2.45068L6.96287 3.89958C6.77089 3.85585 6.58243 3.81263 6.3995 3.76715L6.4005 3.76263L5.1838 3.45883L4.9491 4.40113C4.9491 4.40113 5.60369 4.55115 5.58987 4.56045C5.94719 4.64965 6.01177 4.88611 6.00096 5.07357L5.58936 6.72474C5.61399 6.73102 5.6459 6.74007 5.68108 6.75414L5.65123 6.74668L5.65112 6.74666C5.63068 6.74153 5.60949 6.73622 5.58786 6.73102L5.01091 9.04407C4.96719 9.15263 4.85637 9.31546 4.6066 9.25364C4.6154 9.26646 3.96533 9.09358 3.96533 9.09358L3.52734 10.1035L4.67545 10.3897C4.80365 10.4218 4.9303 10.4548 5.05564 10.4875L5.05567 10.4875C5.13915 10.5093 5.22204 10.5309 5.30441 10.552L4.9393 12.018L5.82054 12.2379L6.18214 10.7875C6.42287 10.8528 6.65656 10.9131 6.88523 10.9699L6.52489 12.4135L7.40714 12.6334L7.77225 11.1702C9.27668 11.4549 10.4079 11.34 10.8841 9.97935C11.2678 8.88376 10.865 8.25178 10.0735 7.83968C10.6499 7.70675 11.0841 7.32757 11.2 6.54432ZM9.18547 9.37084C8.93534 10.376 7.36199 9.96044 6.64211 9.7703L6.64201 9.77027C6.57728 9.75318 6.51946 9.7379 6.47012 9.72565L6.95459 7.78349C7.0147 7.79849 7.08814 7.81497 7.17134 7.83364L7.17135 7.83364C7.91591 8.00072 9.44178 8.3431 9.18547 9.37084ZM7.31985 6.93229C7.92005 7.09247 9.22923 7.44185 9.45727 6.52828C9.69015 5.59384 8.41772 5.31216 7.7963 5.17459C7.7264 5.15912 7.66473 5.14547 7.61437 5.13291L7.17513 6.8944C7.21662 6.90474 7.26531 6.91774 7.31985 6.93229Z" fill="white"/>
</svg>
