<svg width="18" height="17" viewBox="0 0 18 17" fill="none" xmlns="http://www.w3.org/2000/svg">
<rect x="0.763672" y="0.637695" width="16.3333" height="16.3334" rx="6.80556" fill="#FFE812"/>
<g clip-path="url(#clip0_4220_431)">
<path d="M0.763672 8.80436C0.763672 4.29404 4.42001 0.637695 8.93034 0.637695C13.4407 0.637695 17.097 4.29404 17.097 8.80436C17.097 13.3147 13.4407 16.971 8.93034 16.971C4.42001 16.971 0.763672 13.3147 0.763672 8.80436Z" fill="#FFE812"/>
<path d="M8.93077 4.38086C5.92387 4.38086 3.48633 6.3028 3.48633 8.67359C3.48633 10.2064 4.50538 11.5513 6.03831 12.3107C5.95491 12.5984 5.5024 14.161 5.48439 14.2838C5.48439 14.2838 5.47355 14.376 5.53328 14.4112C5.59301 14.4464 5.66327 14.4191 5.66327 14.4191C5.83456 14.3951 7.6496 13.1202 7.96376 12.8988C8.2776 12.9432 8.60076 12.9663 8.93077 12.9663C11.9377 12.9663 14.3752 11.0444 14.3752 8.67359C14.3752 6.3028 11.9377 4.38086 8.93077 4.38086Z" fill="#381F1F"/>
<path d="M5.92104 10.1722C5.74781 10.1722 5.60694 10.0377 5.60694 9.87226V8.00623H5.11683C4.94685 8.00623 4.80859 7.86824 4.80859 7.69867C4.80859 7.52911 4.9469 7.39111 5.11683 7.39111H6.72525C6.89523 7.39111 7.03349 7.52911 7.03349 7.69867C7.03349 7.86824 6.89518 8.00623 6.72525 8.00623H6.23514V9.87226C6.23514 10.0377 6.09427 10.1722 5.92104 10.1722ZM8.6753 10.1681C8.54432 10.1681 8.44412 10.115 8.41391 10.0294L8.25838 9.62224L7.30058 9.62218L7.14494 10.0296C7.11484 10.115 7.01469 10.1681 6.88371 10.1681C6.81482 10.1682 6.74671 10.1534 6.68405 10.1248C6.59746 10.0849 6.51422 9.97503 6.60961 9.67877L7.36094 7.70118C7.41386 7.55078 7.57463 7.39582 7.77922 7.39117C7.98438 7.39577 8.14515 7.55078 8.19818 7.7015L8.9492 9.6782C9.04479 9.97513 8.96155 10.085 8.87497 10.1249C8.81228 10.1534 8.74419 10.1682 8.6753 10.1681C8.67525 10.1681 8.6753 10.1681 8.6753 10.1681ZM8.09322 9.06586L7.77948 8.17459L7.46574 9.06586H8.09322ZM9.45469 10.1264C9.28869 10.1264 9.15368 9.99722 9.15368 9.8385V7.70522C9.15368 7.53199 9.29754 7.39111 9.47433 7.39111C9.65111 7.39111 9.79497 7.53199 9.79497 7.70522V9.55057H10.4624C10.6284 9.55057 10.7635 9.67977 10.7635 9.8385C10.7635 9.99722 10.6284 10.1264 10.4624 10.1264H9.45469ZM11.1997 10.1681C11.0265 10.1681 10.8856 10.0273 10.8856 9.85404V7.70522C10.8856 7.53199 11.0265 7.39111 11.1997 7.39111C11.373 7.39111 11.5138 7.53199 11.5138 7.70522V8.38033L12.3902 7.50398C12.4353 7.45891 12.4972 7.43409 12.5644 7.43409C12.6428 7.43409 12.7216 7.46791 12.7806 7.52686C12.8356 7.58183 12.8684 7.65255 12.8729 7.726C12.8775 7.80007 12.8528 7.86797 12.8036 7.91724L12.0878 8.63292L12.861 9.65721C12.8859 9.69007 12.9041 9.72756 12.9145 9.7675C12.9248 9.80745 12.9271 9.84906 12.9213 9.8899C12.9157 9.93078 12.902 9.97013 12.8811 10.0057C12.8602 10.0413 12.8324 10.0723 12.7994 10.0971C12.7451 10.1383 12.6787 10.1606 12.6105 10.1605C12.5618 10.1607 12.5138 10.1495 12.4702 10.1278C12.4266 10.1061 12.3887 10.0746 12.3596 10.0356L11.6229 9.05957L11.5139 9.16857V9.85389C11.5139 9.9372 11.4807 10.0171 11.4218 10.076C11.3629 10.1349 11.2831 10.168 11.1997 10.1681Z" fill="#FFE812"/>
</g>
<defs>
<clipPath id="clip0_4220_431">
<rect width="16.3333" height="16.3334" fill="white" transform="translate(0.763672 0.637695)"/>
</clipPath>
</defs>
</svg>
