<svg width="15" height="15" viewBox="0 0 15 15" fill="none" xmlns="http://www.w3.org/2000/svg">
<rect x="0.806641" y="0.666504" width="13.6111" height="13.6111" rx="5.10417" fill="#FF7977"/>
<path fill-rule="evenodd" clip-rule="evenodd" d="M11.6937 9.92801C11.6908 9.67208 11.6353 9.41078 11.5346 9.1499C11.4847 9.02027 11.4406 8.91824 11.3409 8.6956L11.335 8.68259L11.3074 8.62077C10.695 7.26149 10.051 5.91392 9.37545 4.57808L9.31464 4.45816L9.31341 4.45573C9.20289 4.23738 9.15197 4.13871 9.08569 4.01735C8.96431 3.79673 8.84061 3.62431 8.69118 3.48325C8.42825 3.22796 8.07239 3.07214 7.70268 3.04869L7.54179 3.04834C7.15344 3.06764 6.78576 3.22969 6.51533 3.49814C6.3737 3.63475 6.25493 3.8021 6.13639 4.01727C6.06986 4.13869 6.01513 4.24457 5.9108 4.45095L5.89848 4.47532L5.85084 4.56943C5.40131 5.4578 4.96257 6.3585 4.53434 7.27165C4.22115 7.94234 3.99991 8.42532 3.78711 8.90782C3.65575 9.20703 3.58136 9.43083 3.54882 9.66849C3.47993 10.127 3.57833 10.6106 3.82124 11.0083C4.03041 11.3533 4.34414 11.6302 4.70929 11.7905C4.9938 11.9158 5.3074 11.9724 5.61614 11.9538C6.00628 11.9327 6.39805 11.7958 6.76105 11.5666C7.05108 11.3854 7.31555 11.1574 7.61116 10.8476C7.87883 11.1289 8.12214 11.3429 8.3856 11.518C8.74458 11.7585 9.12958 11.9094 9.51798 11.9467C9.96952 11.9948 10.4358 11.8797 10.8131 11.6249C11.1452 11.4021 11.4076 11.0736 11.555 10.6965C11.6506 10.4526 11.6982 10.1898 11.6937 9.92801ZM10.7757 10.2984C10.6977 10.5725 10.5095 10.8128 10.2652 10.9504C10.0499 11.0731 9.78991 11.1173 9.54169 11.0751C9.24605 11.0282 8.95535 10.8754 8.65288 10.6273C8.50457 10.5059 8.36141 10.3675 8.19856 10.1915C8.49049 9.80597 8.7075 9.46895 8.87881 9.11826C9.09024 8.68396 9.20948 8.27841 9.22206 7.87568C9.23047 7.57322 9.17107 7.28178 9.04215 7.03156C8.86809 6.68679 8.55537 6.41539 8.18715 6.28342C7.85379 6.16214 7.48217 6.15053 7.13938 6.25004C6.80978 6.34502 6.51516 6.54647 6.3138 6.81944C6.13845 7.05491 6.03322 7.34756 6.00911 7.65294C5.97695 8.03443 6.05605 8.43134 6.22619 8.85152C6.41171 9.3018 6.67498 9.73369 7.02673 10.1904C6.90684 10.3228 6.77696 10.4499 6.63783 10.5715C6.33625 10.8314 6.05034 10.9966 5.75651 11.0613C5.49815 11.1203 5.22605 11.0889 4.99972 10.9723C4.73002 10.8354 4.52213 10.5765 4.44411 10.2805C4.38543 10.0666 4.39538 9.82947 4.46944 9.60709C4.51301 9.47695 4.55695 9.37201 4.66046 9.14113L4.66916 9.12171C4.68805 9.07956 4.70025 9.05221 4.71276 9.02389C5.31213 7.69293 5.94674 6.36462 6.6154 5.04031L6.66646 4.93921L6.66904 4.93411C6.78847 4.69738 6.84392 4.58963 6.91454 4.45999C7.00924 4.28843 7.09267 4.17695 7.19328 4.09908C7.31389 4.00302 7.46523 3.95154 7.61437 3.95498C7.77386 3.95318 7.92978 4.01104 8.05041 4.11426C8.15808 4.20532 8.24045 4.32542 8.35054 4.5347C8.50881 4.83745 8.64654 5.11063 8.89885 5.61818L8.94392 5.70885L8.94889 5.71887C9.51428 6.8589 10.0547 8.00344 10.5696 9.15227L10.5952 9.2105L10.6048 9.23236C10.7016 9.4518 10.7413 9.55148 10.7757 9.67505C10.8323 9.88037 10.8328 10.0995 10.7758 10.2981L10.7757 10.2984ZM7.02673 10.1904C7.0593 10.1545 7.09113 10.1181 7.12221 10.0814L7.11876 10.308C7.08744 10.2686 7.05676 10.2294 7.02673 10.1904ZM8.19856 10.1915C8.16886 10.2307 8.13839 10.2704 8.10711 10.3107L8.09916 10.0822C8.13319 10.1202 8.16626 10.1566 8.19856 10.1915ZM7.61103 9.4734C7.66291 9.54588 7.70351 9.59875 7.74958 9.65398L7.61345 9.76835L7.47238 9.66017C7.52081 9.59657 7.56699 9.53439 7.61103 9.4734ZM7.61103 9.4734C7.88539 9.09341 8.07637 8.75952 8.20576 8.4136C8.30353 8.14767 8.34418 7.91102 8.31981 7.69396C8.30046 7.52418 8.22376 7.36878 8.10697 7.26745C7.8626 7.05244 7.46663 7.02897 7.18901 7.21143C7.07798 7.28348 6.9908 7.39274 6.94494 7.51927C6.89657 7.64666 6.88522 7.79927 6.90574 7.97661C6.92983 8.16813 6.99022 8.36609 7.08619 8.58531C7.18699 8.81269 7.31588 9.04022 7.47486 9.27771L7.4838 9.29072L7.49909 9.31298C7.54321 9.37719 7.57924 9.42898 7.61103 9.4734Z" fill="white"/>
</svg>
