<svg width="15" height="15" viewBox="0 0 15 15" fill="none" xmlns="http://www.w3.org/2000/svg">
<path opacity="0.8" d="M9.50684 7.43743C9.50728 7.5128 9.49283 7.58751 9.46433 7.65729C9.43583 7.72706 9.39384 7.79053 9.34076 7.84404L7.05 10.1348C6.99661 10.1882 6.93322 10.2306 6.86345 10.2595C6.79368 10.2883 6.71891 10.3032 6.64339 10.3032C6.56788 10.3032 6.4931 10.2883 6.42334 10.2595C6.35357 10.2306 6.29018 10.1882 6.23678 10.1348C6.18339 10.0814 6.14103 10.018 6.11213 9.94824C6.08323 9.87848 6.06836 9.8037 6.06836 9.72819C6.06836 9.65267 6.08323 9.5779 6.11213 9.50813C6.14103 9.43837 6.18339 9.37498 6.23678 9.32158L8.13239 7.43743L6.31123 5.54755C6.25265 5.49487 6.20557 5.43066 6.17294 5.35896C6.1403 5.28725 6.12281 5.20958 6.12156 5.1308C6.12032 5.05203 6.13534 4.97384 6.16568 4.90113C6.19603 4.82843 6.24105 4.76277 6.29794 4.70825C6.35482 4.65374 6.42234 4.61155 6.49627 4.58433C6.5702 4.5571 6.64895 4.54542 6.7276 4.55002C6.80625 4.55461 6.88311 4.57539 6.95337 4.61105C7.02362 4.6467 7.08576 4.69647 7.13591 4.75724L9.34649 7.048C9.44747 7.15273 9.5048 7.29196 9.50684 7.43743Z" fill="#021206"/>
</svg>
