<svg width="18" height="17" viewBox="0 0 18 17" fill="none" xmlns="http://www.w3.org/2000/svg">
<rect x="0.763672" y="0.135742" width="16.3333" height="16.3333" rx="6.80556" fill="#2BDE73"/>
<path d="M8.93034 16.4691C13.4407 16.4691 17.097 12.8127 17.097 8.30241C17.097 3.79208 13.4407 0.135742 8.93034 0.135742C4.42001 0.135742 0.763672 3.79208 0.763672 8.30241C0.763672 12.8127 4.42001 16.4691 8.93034 16.4691Z" fill="#2BDE73"/>
<path d="M8.044 7.00238L9.54171 4.83246C9.82487 4.42365 10.1904 4.21924 10.6386 4.21924C11.0042 4.21924 11.3204 4.34892 11.5879 4.60837C11.8552 4.86781 11.9888 5.17836 11.9888 5.54002C11.9888 5.80734 11.9182 6.04325 11.7766 6.24766L10.4262 8.2112L12.0773 10.3045C12.2424 10.5128 12.3249 10.7566 12.3249 11.0357C12.3249 11.4053 12.1953 11.7226 11.9358 11.9879C11.6764 12.2534 11.3617 12.3859 10.9923 12.3859C10.5874 12.3859 10.2789 12.2543 10.0665 11.9909L8.044 9.46718V10.8588C8.044 11.2559 7.97526 11.5644 7.83762 11.7846C7.58605 12.1854 7.22046 12.3859 6.74094 12.3859C6.30456 12.3859 5.96635 12.2385 5.72668 11.9437C5.50258 11.6724 5.39062 11.3127 5.39062 10.8647V5.70514C5.39062 5.28057 5.50446 4.93082 5.73259 4.65562C5.97235 4.36476 6.3025 4.21924 6.72313 4.21924C7.12416 4.21924 7.45825 4.36476 7.72557 4.65562C7.87494 4.81671 7.96927 4.97986 8.00855 5.14498C8.03218 5.24728 8.044 5.43781 8.044 5.71695V7.00238Z" fill="white"/>
</svg>
