<svg width="16" height="16" viewBox="0 0 16 16" fill="none" xmlns="http://www.w3.org/2000/svg">
<rect x="0.589844" y="0.0834961" width="15.3125" height="15.3125" rx="7.65625" fill="#F8F9FE"/>
<path fill-rule="evenodd" clip-rule="evenodd" d="M8.67327 5.61334C8.67327 5.37842 8.48284 5.18799 8.24793 5.18799C8.01301 5.18799 7.82258 5.37842 7.82258 5.61334V7.31479H6.12066C5.88575 7.31479 5.69531 7.50523 5.69531 7.74014C5.69531 7.97505 5.88575 8.16549 6.12066 8.16549H7.82258V9.86681C7.82258 10.1017 8.01301 10.2922 8.24793 10.2922C8.48284 10.2922 8.67327 10.1017 8.67327 9.86681V8.16549H10.3741C10.609 8.16549 10.7995 7.97505 10.7995 7.74014C10.7995 7.50523 10.609 7.31479 10.3741 7.31479H8.67327V5.61334Z" fill="#422F8A" fill-opacity="0.87"/>
</svg>
