<svg width="18" height="17" viewBox="0 0 18 17" fill="none" xmlns="http://www.w3.org/2000/svg">
<path d="M0.763672 8.29899C0.763672 3.78867 4.42001 0.132324 8.93034 0.132324C13.4407 0.132324 17.097 3.78867 17.097 8.29899C17.097 12.8093 13.4407 16.4657 8.93034 16.4657C4.42001 16.4657 0.763672 12.8093 0.763672 8.29899Z" fill="white"/>
<path d="M8.93094 6.12862C9.59546 6.12862 10.0437 6.41567 10.2993 6.65553L11.2981 5.68036C10.6847 5.11021 9.88644 4.76025 8.93094 4.76025C7.54684 4.76025 6.35148 5.55454 5.76953 6.71057L6.91377 7.59923C7.20082 6.74596 7.9951 6.12862 8.93094 6.12862Z" fill="#EA4335"/>
<path d="M12.327 8.3778C12.327 8.08683 12.3034 7.87449 12.2523 7.6543H8.92969V8.96762H10.88C10.8407 9.29398 10.6284 9.78549 10.1565 10.1158L11.2732 10.9809C11.9417 10.3635 12.327 9.4552 12.327 8.3778Z" fill="#4285F4"/>
<path d="M6.91628 8.99893C6.84157 8.77873 6.79832 8.54281 6.79832 8.29902C6.79832 8.05523 6.84157 7.8193 6.91235 7.5991L5.76811 6.71045C5.52825 7.19017 5.39062 7.72886 5.39062 8.29902C5.39062 8.86917 5.52825 9.40787 5.76811 9.88758L6.91628 8.99893Z" fill="#FBBC05"/>
<path d="M8.93091 11.838C9.88641 11.838 10.6886 11.5234 11.2744 10.9808L10.1577 10.1157C9.85889 10.3241 9.45781 10.4696 8.93091 10.4696C7.99507 10.4696 7.20079 9.85229 6.91768 8.99902L5.77344 9.88768C6.35539 11.0437 7.54681 11.838 8.93091 11.838Z" fill="#34A853"/>
</svg>
