<svg width="15" height="15" viewBox="0 0 15 15" fill="none" xmlns="http://www.w3.org/2000/svg">
<path fill-rule="evenodd" clip-rule="evenodd" d="M8.50172 5.0101C8.50172 6.52416 7.26276 7.73749 5.71672 7.73749C4.17123 7.73749 2.93171 6.52416 2.93171 5.0101C2.93171 3.49605 4.17123 2.28271 5.71672 2.28271C7.26276 2.28271 8.50172 3.49605 8.50172 5.0101ZM1.50781 10.8258C1.50781 9.42429 3.44667 9.07363 5.7167 9.07363C7.99907 9.07363 9.9256 9.43636 9.9256 10.839C9.9256 12.2406 7.98674 12.5912 5.7167 12.5912C3.43434 12.5912 1.50781 12.2285 1.50781 10.8258ZM9.62443 5.05954C9.62443 5.83056 9.38796 6.55 8.97329 7.14761C8.93014 7.20907 8.96825 7.29193 9.04334 7.3051C9.14756 7.32211 9.25459 7.33254 9.36387 7.33474C10.451 7.36272 11.4266 6.67731 11.6961 5.64507C12.0956 4.11346 10.9234 2.73824 9.42999 2.73824C9.26804 2.73824 9.11282 2.7547 8.96152 2.78488C8.94079 2.78927 8.91838 2.79915 8.90717 2.81671C8.8926 2.83921 8.90325 2.8683 8.91782 2.8875C9.36667 3.50377 9.62443 4.25394 9.62443 5.05954ZM11.4249 8.41176C12.1556 8.5517 12.6358 8.83651 12.8347 9.25193C13.0034 9.59216 13.0034 9.98728 12.8347 10.3275C12.5305 10.9707 11.5487 11.1776 11.1671 11.2308C11.0881 11.2418 11.0248 11.1759 11.0332 11.098C11.2282 9.31558 9.67766 8.47048 9.27644 8.27621C9.25963 8.26688 9.2557 8.25371 9.25739 8.24493C9.25851 8.23945 9.26579 8.23067 9.27868 8.22902C10.1467 8.21256 11.0802 8.32944 11.4249 8.41176Z" fill="#FBBA5A"/>
</svg>
