<svg width="18" height="19" viewBox="0 0 18 19" fill="none" xmlns="http://www.w3.org/2000/svg">
<path d="M7.85677 1.28862C8.54379 0.81001 9.45622 0.810011 10.1432 1.28862L11.5334 2.25708C11.7704 2.42217 12.0403 2.53398 12.3246 2.58481L13.9924 2.883C14.8166 3.03037 15.4618 3.67555 15.6092 4.49978L15.9074 6.16757C15.9582 6.45188 16.07 6.72181 16.2351 6.9588L17.2036 8.34896C17.6822 9.03597 17.6822 9.9484 17.2036 10.6354L16.2351 12.0256C16.07 12.2626 15.9582 12.5325 15.9074 12.8168L15.6092 14.4846C15.4618 15.3088 14.8166 15.954 13.9924 16.1014L12.3246 16.3996C12.0403 16.4504 11.7704 16.5622 11.5334 16.7273L10.1432 17.6958C9.45621 18.1744 8.54378 18.1744 7.85677 17.6958L6.46661 16.7273C6.22963 16.5622 5.95969 16.4504 5.67538 16.3996L4.00759 16.1014C3.18337 15.954 2.53818 15.3088 2.39082 14.4846L2.09263 12.8168C2.04179 12.5325 1.92998 12.2626 1.76489 12.0256L0.796434 10.6354C0.317823 9.9484 0.317823 9.03597 0.796434 8.34895L1.76489 6.9588C1.92998 6.72181 2.04179 6.45188 2.09263 6.16757L2.39082 4.49978C2.53818 3.67555 3.18337 3.03037 4.00759 2.883L5.67538 2.58481C5.95969 2.53398 6.22963 2.42217 6.46661 2.25708L7.85677 1.28862Z" fill="url(#paint0_linear_77_2567)"/>
<path d="M12.6965 7.97646L8.55198 12.1207C8.24508 12.4277 7.74722 12.4277 7.44002 12.1207L5.30058 9.98112C4.99356 9.67415 4.99356 9.17624 5.30058 8.86922C5.60766 8.56213 6.10548 8.56213 6.41243 8.8691L7.99617 10.4529L11.5845 6.8645C11.8916 6.55742 12.3894 6.55765 12.6964 6.8645C13.0034 7.17153 13.0034 7.66926 12.6965 7.97646Z" fill="white"/>
<defs>
<linearGradient id="paint0_linear_77_2567" x1="0.72" y1="1.33219" x2="9" y2="18.4922" gradientUnits="userSpaceOnUse">
<stop stop-color="#8BF9D5"/>
<stop offset="1" stop-color="#4EDAAC"/>
</linearGradient>
</defs>
</svg>
