<svg width="8" height="8" viewBox="0 0 8 8" fill="none" xmlns="http://www.w3.org/2000/svg">
<g opacity="0.2">
<path fill-rule="evenodd" clip-rule="evenodd" d="M3.53056 3.23438C3.20572 3.23438 2.94209 3.52419 2.94209 3.88129C2.94209 4.23839 3.20572 4.52821 3.53056 4.52821C3.85539 4.52821 4.11903 4.23839 4.11903 3.88129C4.11903 3.52419 3.85539 3.23438 3.53056 3.23438ZM5.5906 3.23438C5.26577 3.23438 5.00213 3.52419 5.00213 3.88129C5.00213 4.23839 5.26577 4.52821 5.5906 4.52821C5.91544 4.52821 6.17907 4.23839 6.17907 3.88129C6.17907 3.52419 5.91544 3.23438 5.5906 3.23438ZM0.882812 3.88147C0.882812 3.52437 1.14645 3.23455 1.47128 3.23455C1.79612 3.23455 2.05975 3.52437 2.05975 3.88147C2.05975 4.23857 1.79612 4.52838 1.47128 4.52838C1.14645 4.52838 0.882812 4.23857 0.882812 3.88147Z" fill="black"/>
</g>
</svg>
