<svg width="39" height="43" viewBox="0 0 39 43" fill="none" xmlns="http://www.w3.org/2000/svg">
<g clip-path="url(#clip0_77_3068)" filter="url(#filter0_d_77_3068)">
<path d="M19.4989 10.832C15.8216 10.832 12.8301 13.8236 12.8301 17.5005C12.8301 21.1778 15.8216 24.1693 19.4989 24.1693C23.1758 24.1693 26.1674 21.1778 26.1674 17.5005C26.1674 13.8236 23.1758 10.832 19.4989 10.832ZM23.4581 16.2447L18.6807 21.0221C18.4801 21.2227 18.2171 21.3231 17.9544 21.3231C17.6916 21.3231 17.4288 21.2229 17.2283 21.0221L15.4026 19.1964C15.0016 18.7956 15.0016 18.1454 15.4026 17.7443C15.8034 17.3433 16.4537 17.3433 16.8547 17.7443L17.9544 18.844L22.006 14.7926C22.4068 14.3915 23.057 14.3915 23.4581 14.7926C23.8592 15.1934 23.8592 15.8436 23.4581 16.2447Z" fill="white"/>
<path d="M34.3673 9.49639L34.3662 9.46915C34.351 9.13296 34.3408 8.77728 34.3347 8.38154C34.3061 6.45173 32.772 4.85544 30.842 4.74756C26.8178 4.52299 23.7048 3.21081 21.045 0.618237L21.0223 0.596607C20.1547 -0.198869 18.846 -0.198869 17.9782 0.596607L17.9555 0.618237C15.2956 3.21081 12.1826 4.52299 8.15846 4.74783C6.22865 4.85544 4.69431 6.45173 4.66574 8.38181C4.65986 8.77488 4.64945 9.13056 4.63423 9.46915L4.63262 9.53244C4.55439 13.6359 4.45719 18.7428 6.16563 23.3781C7.10504 25.9272 8.52776 28.143 10.394 29.9644C12.5196 32.0386 15.3036 33.6854 18.6687 34.8587C18.7782 34.8969 18.8919 34.9279 19.0078 34.9511C19.1712 34.9837 19.3357 35 19.5002 35C19.6647 35 19.8295 34.9837 19.9926 34.9511C20.1085 34.9279 20.2231 34.8966 20.3331 34.8582C23.6942 33.6827 26.4753 32.0352 28.5989 29.9612C30.4644 28.1392 31.8871 25.9229 32.8273 23.3733C34.5422 18.7241 34.4452 13.6076 34.3673 9.49639ZM19.4997 26.223C14.69 26.223 10.7772 22.3103 10.7772 17.5006C10.7772 12.6908 14.69 8.77808 19.4997 8.77808C24.3091 8.77808 28.2221 12.6908 28.2221 17.5006C28.2221 22.3103 24.3091 26.223 19.4997 26.223Z" fill="white"/>
</g>
<defs>
<filter id="filter0_d_77_3068" x="-2" y="0" width="43" height="43" filterUnits="userSpaceOnUse" color-interpolation-filters="sRGB">
<feFlood flood-opacity="0" result="BackgroundImageFix"/>
<feColorMatrix in="SourceAlpha" type="matrix" values="0 0 0 0 0 0 0 0 0 0 0 0 0 0 0 0 0 0 127 0" result="hardAlpha"/>
<feOffset dy="4"/>
<feGaussianBlur stdDeviation="2"/>
<feComposite in2="hardAlpha" operator="out"/>
<feColorMatrix type="matrix" values="0 0 0 0 0 0 0 0 0 0 0 0 0 0 0 0 0 0 0.25 0"/>
<feBlend mode="normal" in2="BackgroundImageFix" result="effect1_dropShadow_77_3068"/>
<feBlend mode="normal" in="SourceGraphic" in2="effect1_dropShadow_77_3068" result="shape"/>
</filter>
<clipPath id="clip0_77_3068">
<rect width="35" height="35" fill="white" transform="translate(2)"/>
</clipPath>
</defs>
</svg>
