<svg width="35" height="35" viewBox="0 0 35 35" fill="none" xmlns="http://www.w3.org/2000/svg">
<g clip-path="url(#clip0_77_3058)">
<path d="M17.2485 16.8596C19.5647 16.8596 21.5703 16.0289 23.2091 14.3899C24.8478 12.7511 25.6786 10.746 25.6786 8.42953C25.6786 6.11387 24.8478 4.10849 23.2088 2.46921C21.5698 0.830723 19.5644 0 17.2485 0C14.932 0 12.9269 0.830723 11.2881 2.46947C9.64935 4.10822 8.81836 6.1136 8.81836 8.42953C8.81836 10.746 9.64935 12.7514 11.2884 14.3901C12.9274 16.0286 14.9328 16.8596 17.2485 16.8596Z" fill="white"/>
<path d="M32.001 26.9136C31.9537 26.2316 31.8581 25.4877 31.7174 24.7021C31.5754 23.9106 31.3924 23.1624 31.1735 22.4785C30.9473 21.7717 30.6397 21.0737 30.2594 20.4048C29.8648 19.7105 29.4012 19.106 28.881 18.6085C28.3371 18.0881 27.6711 17.6696 26.901 17.3644C26.1336 17.0608 25.2831 16.907 24.3733 16.907C24.016 16.907 23.6705 17.0536 23.0032 17.4881C22.5925 17.7559 22.1121 18.0656 21.5759 18.4082C21.1174 18.7004 20.4963 18.9741 19.7292 19.2219C18.9807 19.4641 18.2207 19.5869 17.4706 19.5869C16.7205 19.5869 15.9608 19.4641 15.2116 19.2219C14.4452 18.9743 13.8241 18.7006 13.3661 18.4085C12.835 18.0691 12.3544 17.7594 11.9375 17.4878C11.271 17.0533 10.9252 16.9067 10.5679 16.9067C9.6579 16.9067 8.80768 17.0608 8.0405 17.3647C7.27093 17.6694 6.60469 18.0878 6.06022 18.6088C5.54031 19.1065 5.07648 19.7108 4.68235 20.4048C4.30237 21.0737 3.99475 21.7715 3.76831 22.4788C3.54961 23.1627 3.3667 23.9106 3.22464 24.7021C3.08392 25.4866 2.98832 26.2308 2.94106 26.9144C2.89459 27.5841 2.87109 28.2792 2.87109 28.9812C2.87109 30.8082 3.45188 32.2873 4.59717 33.3781C5.7283 34.4545 7.225 35.0005 9.04507 35.0005H25.8978C27.7179 35.0005 29.214 34.4547 30.3454 33.3781C31.491 32.2881 32.0718 30.8087 32.0718 28.9809C32.0715 28.2757 32.0477 27.5801 32.001 26.9136Z" fill="white"/>
</g>
<defs>
<clipPath id="clip0_77_3058">
<rect width="35" height="35" fill="white"/>
</clipPath>
</defs>
</svg>
